<svg xmlns="http://www.w3.org/2000/svg" width="23.375" height="29.903" viewBox="0 0 23.375 29.903">
  <g id="Group_159" data-name="Group 159" transform="translate(-289.657 -694.619)">
    <g id="_001-water-drop" data-name="001-water-drop" transform="translate(289.657 694.619)">
      <g id="Group_43" data-name="Group 43" transform="translate(0 0)">
        <g id="Group_42" data-name="Group 42">
          <path id="Path_72" data-name="Path 72" d="M60.595,2.877c-.849-.99-1.613-1.868-2.207-2.6C58.359.217,58.3.189,58.274.16a.722.722,0,0,0-1.019.113c-.594.736-1.358,1.613-2.207,2.6-3.736,4.33-8.914,10.329-8.914,15.338a11.634,11.634,0,0,0,3.424,8.263A11.753,11.753,0,0,0,57.822,29.9,11.691,11.691,0,0,0,69.509,18.215C69.509,13.206,64.331,7.207,60.595,2.877Zm4.471,22.555a10.23,10.23,0,0,1-17.489-7.216c0-4.471,4.981-10.244,8.575-14.4.594-.707,1.16-1.358,1.67-1.981.509.623,1.075,1.273,1.67,1.953,3.594,4.16,8.575,9.9,8.575,14.4A10.3,10.3,0,0,1,65.066,25.432Z" transform="translate(-46.134 0)"/>
        </g>
      </g>
      <g id="Group_45" data-name="Group 45" transform="translate(4.018 17.734)">
        <g id="Group_44" data-name="Group 44">
          <path id="Path_73" data-name="Path 73" d="M110.66,257.685a6.281,6.281,0,0,1-6.311-6.311.707.707,0,0,0-1.415,0,7.682,7.682,0,0,0,7.726,7.726.707.707,0,1,0,0-1.415Z" transform="translate(-102.934 -250.667)"/>
        </g>
      </g>
    </g>
  </g>
</svg>
