<svg xmlns="http://www.w3.org/2000/svg" width="27.419" height="28.623" viewBox="0 0 27.419 28.623">
  <g id="Group_152" data-name="Group 152" transform="translate(-287.682 -144)">
    <path id="Path_28" data-name="Path 28" d="M2.193,5.963A1.193,1.193,0,0,1,1,4.771V3.578A3.582,3.582,0,0,1,4.578,0H5.771a1.193,1.193,0,1,1,0,2.385H4.578A1.2,1.2,0,0,0,3.385,3.578V4.771A1.193,1.193,0,0,1,2.193,5.963Z" transform="translate(286.682 144)" fill="#fff"/>
    <path id="Path_29" data-name="Path 29" d="M20.771,5.963a1.193,1.193,0,0,1-1.193-1.193V3.578a1.2,1.2,0,0,0-1.193-1.193H17.193a1.193,1.193,0,1,1,0-2.385h1.193a3.582,3.582,0,0,1,3.578,3.578V4.771A1.193,1.193,0,0,1,20.771,5.963Z" transform="translate(289.572 144)" fill="#fff"/>
    <path id="Path_30" data-name="Path 30" d="M13.963,2.385H9.193A1.193,1.193,0,0,1,9.193,0h4.771a1.193,1.193,0,1,1,0,2.385Z" transform="translate(288.031 144)" fill="#fff"/>
    <path id="Path_31" data-name="Path 31" d="M11.578,20.385H9.193a1.193,1.193,0,0,1,0-2.385h2.385a1.193,1.193,0,1,1,0,2.385Z" transform="translate(288.031 147.468)" fill="#fff"/>
    <path id="Path_32" data-name="Path 32" d="M5.771,20.963H4.578A3.582,3.582,0,0,1,1,17.385V16.193a1.193,1.193,0,1,1,2.385,0v1.193a1.2,1.2,0,0,0,1.193,1.193H5.771a1.193,1.193,0,0,1,0,2.385Z" transform="translate(286.682 146.89)" fill="#fff"/>
    <path id="Path_33" data-name="Path 33" d="M2.193,14.156A1.193,1.193,0,0,1,1,12.963V8.193a1.193,1.193,0,1,1,2.385,0v4.771A1.193,1.193,0,0,1,2.193,14.156Z" transform="translate(286.682 145.349)" fill="#fff"/>
    <path id="Path_34" data-name="Path 34" d="M20.193,11.771A1.193,1.193,0,0,1,19,10.578V8.193a1.193,1.193,0,0,1,2.385,0v2.385A1.193,1.193,0,0,1,20.193,11.771Z" transform="translate(290.15 145.349)" fill="#fff"/>
    <path id="Path_35" data-name="Path 35" d="M25.828,20.478,14.577,9.228a.778.778,0,0,0-1.327.55V26.111a.778.778,0,0,0,1.337.54l4.672-4.845h6.022a.777.777,0,0,0,.547-1.329Z" transform="translate(289.042 145.734)" fill="#fff"/>
  </g>
</svg>
