<svg xmlns="http://www.w3.org/2000/svg" width="31.034" height="23.033" viewBox="0 0 31.034 23.033">
  <g id="Group_162" data-name="Group 162" transform="translate(-289.36 -361)">
    <path id="Path_86" data-name="Path 86" d="M2.425,79.336v.606a.606.606,0,0,0,.606.606H5l2.048,7.166a1.826,1.826,0,0,0,1.749,1.319H9.91a1.818,1.818,0,0,0,1.748-2.318L9.9,80.548h1.621a.606.606,0,0,0,.606-.606v-.585c4.458.3,9.321,3.707,10.425,4.524v.91a.606.606,0,0,0,.606.606h2.425a.606.606,0,0,0,.606-.606V78.427a.606.606,0,1,0-1.212,0v5.758H23.76V67.213h1.212v5.758a.606.606,0,1,0,1.212,0V66.607A.606.606,0,0,0,25.579,66H23.154a.606.606,0,0,0-.606.606v.91c-1.1.817-5.967,4.228-10.425,4.524v-.585a.606.606,0,0,0-.606-.606H3.031a.606.606,0,0,0-.606.606v.606A2.427,2.427,0,0,0,0,74.487v2.425A2.427,2.427,0,0,0,2.425,79.336Zm9.7-6.08c4.181-.245,8.525-2.927,10.425-4.245V82.387c-1.9-1.318-6.244-4-10.425-4.245Zm-1.63,13.793a.606.606,0,0,1-.583.772H8.794a.608.608,0,0,1-.583-.44L6.259,80.548H8.635ZM3.637,72.062H10.91v7.274H3.637ZM1.212,74.487a1.214,1.214,0,0,1,1.212-1.212v4.849a1.214,1.214,0,0,1-1.212-1.212Z" transform="translate(289.36 294.999)"/>
    <path id="Path_87" data-name="Path 87" d="M455.031,206h-2.425a.606.606,0,0,0,0,1.212h2.425a.606.606,0,1,0,0-1.212Z" transform="translate(-135.243 163.485)"/>
    <path id="Path_88" data-name="Path 88" d="M455.3,267.275l-2.424-1.212a.606.606,0,1,0-.542,1.084l2.424,1.212a.606.606,0,1,0,.542-1.084Z" transform="translate(-135.241 107.124)"/>
    <path id="Path_89" data-name="Path 89" d="M452.062,128.087a.606.606,0,0,0,.813.271l2.424-1.212a.606.606,0,1,0-.542-1.084l-2.425,1.212A.606.606,0,0,0,452.062,128.087Z" transform="translate(-135.241 238.639)"/>
    <path id="Path_90" data-name="Path 90" d="M80.606,186a.606.606,0,0,0-.606.606v2.425a.606.606,0,0,0,1.212,0v-2.425A.606.606,0,0,0,80.606,186Z" transform="translate(214.208 182.273)"/>
    <path id="Path_91" data-name="Path 91" d="M120.606,186a.606.606,0,0,0-.606.606v2.425a.606.606,0,0,0,1.212,0v-2.425A.606.606,0,0,0,120.606,186Z" transform="translate(176.633 182.273)"/>
    <ellipse id="Ellipse_1" data-name="Ellipse 1" cx="0.541" cy="0.722" rx="0.541" ry="0.722" transform="translate(314.474 370.021)"/>
  </g>
</svg>
