<svg xmlns="http://www.w3.org/2000/svg" width="31.325" height="31.325" viewBox="0 0 31.325 31.325">
  <g id="Group_157" data-name="Group 157" transform="translate(-285.682 -538.124)">
    <g id="_007-happy" data-name="007-happy" transform="translate(285.682 538.124)">
      <g id="Group_22" data-name="Group 22" transform="translate(0 0)">
        <g id="Group_21" data-name="Group 21">
          <path id="Path_24" data-name="Path 24" d="M26.737,4.587a15.662,15.662,0,1,0-22.15,22.15,15.662,15.662,0,1,0,22.15-22.15ZM15.662,29.46a13.8,13.8,0,1,1,13.8-13.8A13.814,13.814,0,0,1,15.662,29.46Z" transform="translate(0 0)"/>
        </g>
      </g>
      <g id="Group_24" data-name="Group 24" transform="translate(6.464 10.381)">
        <g id="Group_23" data-name="Group 23">
          <path id="Path_25" data-name="Path 25" d="M111.46,170.826a3.92,3.92,0,0,0-5.537,0,.932.932,0,1,0,1.319,1.318,2.053,2.053,0,0,1,2.9,0,.932.932,0,1,0,1.318-1.318Z" transform="translate(-105.65 -169.681)"/>
        </g>
      </g>
      <g id="Group_26" data-name="Group 26" transform="translate(18.777 10.381)">
        <g id="Group_25" data-name="Group 25">
          <path id="Path_26" data-name="Path 26" d="M312.722,170.826a3.92,3.92,0,0,0-5.537,0,.932.932,0,1,0,1.319,1.318,2.053,2.053,0,0,1,2.9,0,.932.932,0,0,0,1.318-1.318Z" transform="translate(-306.912 -169.681)"/>
        </g>
      </g>
      <g id="Group_28" data-name="Group 28" transform="translate(6.464 16.346)">
        <g id="Group_27" data-name="Group 27">
          <path id="Path_27" data-name="Path 27" d="M123.116,267.175H106.583a.932.932,0,0,0-.932.932,9.2,9.2,0,1,0,18.4,0A.932.932,0,0,0,123.116,267.175Zm-8.266,8.266a7.345,7.345,0,0,1-7.275-6.4h14.55A7.345,7.345,0,0,1,114.85,275.441Z" transform="translate(-105.651 -267.175)"/>
        </g>
      </g>
    </g>
  </g>
</svg>
