<svg xmlns="http://www.w3.org/2000/svg" width="28.561" height="28.561" viewBox="0 0 28.561 28.561">
  <g id="Group_164" data-name="Group 164" transform="translate(-289.36 -208)">
    <path id="Path_74" data-name="Path 74" d="M27.966,490.667H.6a.6.6,0,1,0,0,1.19H27.966a.6.6,0,1,0,0-1.19Z" transform="translate(289.36 -255.296)"/>
    <path id="Path_75" data-name="Path 75" d="M25.5,362.667h-3.57a.6.6,0,0,0-.6.6v7.14a.6.6,0,0,0,.6.595H25.5a.6.6,0,0,0,.6-.6v-7.14A.6.6,0,0,0,25.5,362.667Zm-.6,7.14h-2.38v-5.95H24.9v5.95Z" transform="translate(269.217 -134.436)"/>
    <path id="Path_76" data-name="Path 76" d="M153.5,256h-3.57a.6.6,0,0,0-.6.6v13.091a.6.6,0,0,0,.6.6h3.57a.6.6,0,0,0,.6-.6V256.6A.6.6,0,0,0,153.5,256Zm-.6,13.091h-2.38v-11.9h2.38Z" transform="translate(148.357 -33.719)"/>
    <path id="Path_77" data-name="Path 77" d="M281.5,298.667h-3.57a.6.6,0,0,0-.6.6v10.711a.6.6,0,0,0,.6.6h3.57a.6.6,0,0,0,.6-.6V299.262A.6.6,0,0,0,281.5,298.667Zm-.6,10.71h-2.38v-9.52h2.38Z" transform="translate(27.497 -74.006)"/>
    <path id="Path_78" data-name="Path 78" d="M409.5,170.667h-3.57a.6.6,0,0,0-.6.6v17.851a.6.6,0,0,0,.6.6h3.57a.6.6,0,0,0,.6-.6V171.262A.6.6,0,0,0,409.5,170.667Zm-.6,17.851h-2.38V171.857h2.38Z" transform="translate(-93.362 46.854)"/>
    <path id="Path_79" data-name="Path 79" d="M23.713,192a2.38,2.38,0,1,0,2.38,2.38A2.383,2.383,0,0,0,23.713,192Zm0,3.57a1.19,1.19,0,1,1,1.19-1.19A1.191,1.191,0,0,1,23.713,195.57Z" transform="translate(269.217 26.71)"/>
    <path id="Path_80" data-name="Path 80" d="M151.713,85.333a2.38,2.38,0,1,0,2.38,2.38A2.383,2.383,0,0,0,151.713,85.333Zm0,3.57a1.19,1.19,0,1,1,1.19-1.19A1.191,1.191,0,0,1,151.713,88.9Z" transform="translate(148.357 127.427)"/>
    <path id="Path_81" data-name="Path 81" d="M279.713,128a2.38,2.38,0,1,0,2.38,2.38A2.383,2.383,0,0,0,279.713,128Zm0,3.57a1.19,1.19,0,1,1,1.19-1.19A1.191,1.191,0,0,1,279.713,131.57Z" transform="translate(27.497 87.14)"/>
    <path id="Path_82" data-name="Path 82" d="M407.713,0a2.38,2.38,0,1,0,2.38,2.38A2.382,2.382,0,0,0,407.713,0Zm0,3.57a1.19,1.19,0,1,1,1.19-1.19A1.191,1.191,0,0,1,407.713,3.57Z" transform="translate(-93.362 208)"/>
    <path id="Path_83" data-name="Path 83" d="M337.6,54.782a.6.6,0,0,0-.841,0L332.137,59.4a.595.595,0,0,0,.841.841l4.617-4.617A.6.6,0,0,0,337.6,54.782Z" transform="translate(-24.085 156.438)"/>
    <path id="Path_84" data-name="Path 84" d="M216.688,127.192l-3.822-1.09a.6.6,0,0,0-.326,1.145l3.822,1.09a.6.6,0,0,0,.326-1.145Z" transform="translate(89.084 88.955)"/>
    <path id="Path_85" data-name="Path 85" d="M81.481,137.5a.6.6,0,0,0-.835-.1l-4.487,3.577a.6.6,0,0,0,.371,1.06.6.6,0,0,0,.37-.129l4.487-3.577A.6.6,0,0,0,81.481,137.5Z" transform="translate(217.661 78.384)"/>
  </g>
</svg>
