<svg xmlns="http://www.w3.org/2000/svg" width="31.325" height="31.325" viewBox="0 0 31.325 31.325">
  <g id="Group_153" data-name="Group 153" transform="translate(-285.682 -209.213)">
    <g id="_006-text" data-name="006-text" transform="translate(285.682 209.213)">
      <path id="Path_19" data-name="Path 19" d="M.918,6.989a.918.918,0,0,0,.918-.918V1.835H6.071A.918.918,0,0,0,6.071,0H.918A.918.918,0,0,0,0,.918V6.071A.918.918,0,0,0,.918,6.989Z"/>
      <path id="Path_20" data-name="Path 20" d="M403.836,0h-5.154a.918.918,0,1,0,0,1.835h4.236V6.071a.918.918,0,1,0,1.835,0V.918A.918.918,0,0,0,403.836,0Z" transform="translate(-373.429)"/>
      <path id="Path_21" data-name="Path 21" d="M403.836,397.765a.918.918,0,0,0-.918.918v4.236h-4.236a.918.918,0,0,0,0,1.835h5.154a.918.918,0,0,0,.918-.918v-5.154A.918.918,0,0,0,403.836,397.765Z" transform="translate(-373.429 -373.429)"/>
      <path id="Path_22" data-name="Path 22" d="M6.071,402.919H1.835v-4.236a.918.918,0,1,0-1.835,0v5.154a.918.918,0,0,0,.918.918H6.071a.918.918,0,0,0,0-1.835Z" transform="translate(0 -373.429)"/>
      <path id="Path_23" data-name="Path 23" d="M112.366,94.456v-5.8a.521.521,0,0,0-.521-.521H92.861a.521.521,0,0,0-.521.521v5.8a.521.521,0,0,0,.521.521h2.768a.521.521,0,0,0,.521-.521V92.471a.521.521,0,0,1,.521-.521h3.255a.521.521,0,0,1,.521.521V106.8a.521.521,0,0,1-.521.521H98.5a.521.521,0,0,0-.521.521v2.768a.521.521,0,0,0,.521.521h7.7a.521.521,0,0,0,.521-.521v-2.768a.521.521,0,0,0-.521-.521h-1.424a.521.521,0,0,1-.521-.521V92.471a.521.521,0,0,1,.521-.521h3.255a.521.521,0,0,1,.521.521v1.985a.521.521,0,0,0,.521.521h2.768A.521.521,0,0,0,112.366,94.456Z" transform="translate(-86.691 -82.747)"/>
    </g>
  </g>
</svg>
