<svg xmlns="http://www.w3.org/2000/svg" width="36.636" height="36.638" viewBox="0 0 36.636 36.638">
  <g id="Group_155" data-name="Group 155" transform="translate(-283.682 -373.361)">
    <g id="_005-button" data-name="005-button" transform="translate(283.682 373.361)">
      <g id="Page-1_66_" transform="translate(0 0)">
        <g id="_x30_67---Click-Button">
          <path id="Shape_335_" d="M27.5,85.333H9.178a9.16,9.16,0,0,0,0,18.319H21.925l-2.236,4.542a1.221,1.221,0,0,0,1.361,1.737l3.393-.777v5.489a1.221,1.221,0,0,0,1.221,1.221h3.664a1.221,1.221,0,0,0,1.221-1.221l0-5.49,3.4.779a1.221,1.221,0,0,0,1.359-1.735l-2.931-5.954A9.16,9.16,0,0,0,27.5,85.333Zm3.318,22.629a1.221,1.221,0,0,0-1.486,1.193v5.489H25.665v-5.489a1.221,1.221,0,0,0-1.49-1.191l-3.391.773L27.5,95.1l3.542,7.187v.006l0,0,3.172,6.445Zm2.3-7.856a7.91,7.91,0,0,1-1.278,1.034l-3.243-6.583a1.221,1.221,0,0,0-2.187,0l-3.876,7.874H9.178a7.938,7.938,0,0,1,0-15.877H27.5a7.938,7.938,0,0,1,5.614,13.552Z" transform="translate(-0.018 -79.227)"/>
          <path id="Shape_334_" d="M63.922,119.467a6.7,6.7,0,0,0-4.753,1.969.611.611,0,1,0,.861.866,5.484,5.484,0,0,1,3.892-1.614.611.611,0,1,0,0-1.221Z" transform="translate(-54.762 -110.918)"/>
          <path id="Shape_333_" d="M247.485.611V3.664a.611.611,0,1,0,1.221,0V.611a.611.611,0,1,0-1.221,0Z" transform="translate(-229.776 0)"/>
          <path id="Shape_332_" d="M171.826,17.343a.611.611,0,0,0-.863.863l2.443,2.443a.611.611,0,0,0,.863-.863Z" transform="translate(-158.57 -15.943)"/>
          <path id="Shape_331_" d="M292.676,17.148l-2.443,2.443a.611.611,0,1,0,.863.863l2.443-2.443a.611.611,0,1,0-.863-.863Z" transform="translate(-269.292 -15.748)"/>
          <path id="Shape_330_" d="M154.84,119.467h-.611a.611.611,0,1,0,0,1.221h.611a.611.611,0,1,0,0-1.221Z" transform="translate(-142.627 -110.918)"/>
        </g>
      </g>
    </g>
  </g>
</svg>
