<svg xmlns="http://www.w3.org/2000/svg" width="30.988" height="30.988" viewBox="0 0 30.988 30.988">
  <g id="Group_156" data-name="Group 156" transform="translate(-286.682 -456.679)">
    <g id="_002-image" data-name="002-image" transform="translate(286.682 456.679)">
      <g id="Group_10" data-name="Group 10">
        <g id="Group_9" data-name="Group 9">
          <path id="Path_5" data-name="Path 5" d="M27.029,0H3.96A3.964,3.964,0,0,0,0,3.96V27.029a3.964,3.964,0,0,0,3.96,3.96H27.029a3.964,3.964,0,0,0,3.96-3.96V3.96A3.964,3.964,0,0,0,27.029,0Zm2.135,27.029a2.137,2.137,0,0,1-2.135,2.135H3.96a2.137,2.137,0,0,1-2.135-2.135V23.7l6.007-5.111a.59.59,0,0,1,.76,0l3.763,3.125a.913.913,0,0,0,1.229-.057L22.526,12.7a.591.591,0,0,1,.877.045l5.76,7.093v7.195Zm0-10.09L24.819,11.59a2.416,2.416,0,0,0-3.585-.184l-8.353,8.366L9.759,17.179A2.412,2.412,0,0,0,6.65,17.2L1.825,21.3V3.96A2.137,2.137,0,0,1,3.96,1.825H27.029A2.137,2.137,0,0,1,29.163,3.96Z"/>
        </g>
      </g>
      <g id="Group_12" data-name="Group 12" transform="translate(5.354 3.813)">
        <g id="Group_11" data-name="Group 11">
          <path id="Path_6" data-name="Path 6" d="M92.862,63a4.4,4.4,0,1,0,4.4,4.4A4.406,4.406,0,0,0,92.862,63Zm0,6.977A2.576,2.576,0,1,1,95.438,67.4,2.579,2.579,0,0,1,92.862,69.972Z" transform="translate(-88.461 -62.995)"/>
        </g>
      </g>
    </g>
  </g>
</svg>
