<svg xmlns="http://www.w3.org/2000/svg" width="31.325" height="21.461" viewBox="0 0 31.325 21.461">
  <g id="Group_158" data-name="Group 158" transform="translate(-285.682 -622.701)">
    <g id="_001-message" data-name="001-message" transform="translate(285.682 622.701)">
      <g id="Group_8" data-name="Group 8" transform="translate(0 0)">
        <path id="Path_4" data-name="Path 4" d="M28.572,80.609H2.753A2.756,2.756,0,0,0,0,83.362V99.317a2.756,2.756,0,0,0,2.753,2.753H28.572a2.756,2.756,0,0,0,2.753-2.753V83.362A2.756,2.756,0,0,0,28.572,80.609Zm-.359,1.835-.367.306-11.09,9.235a1.707,1.707,0,0,1-2.185,0L3.48,82.75l-.367-.306ZM1.835,83.77l9.036,7.524L1.835,97.307Zm26.736,16.465H2.753a.919.919,0,0,1-.9-.735l10.489-6.981L13.4,93.4a3.542,3.542,0,0,0,4.534,0l1.053-.876L29.471,99.5A.919.919,0,0,1,28.572,100.235Zm.918-2.927-9.036-6.014,9.036-7.524Z" transform="translate(0 -80.609)"/>
      </g>
    </g>
  </g>
</svg>
